<?xml version="1.0" encoding="UTF-8" standalone="no"?>
<svg
   xmlns:dc="http://purl.org/dc/elements/1.1/"
   xmlns:cc="http://creativecommons.org/ns#"
   xmlns:rdf="http://www.w3.org/1999/02/22-rdf-syntax-ns#"
   xmlns:svg="http://www.w3.org/2000/svg"
   xmlns="http://www.w3.org/2000/svg"
   xmlns:sodipodi="http://sodipodi.sourceforge.net/DTD/sodipodi-0.dtd"
   xmlns:inkscape="http://www.inkscape.org/namespaces/inkscape"
   height="800"
   width="1200"
   fill="#0071c5"
   viewBox="-44.7 -49.12825 387.4 294.7695"
   version="1.1"
   id="svg26"
   sodipodi:docname="Intel-Logo.wine.svg"
   inkscape:version="1.0.2 (e86c870879, 2021-01-15, custom)">
  <metadata
     id="metadata32">
    <rdf:RDF>
      <cc:Work
         rdf:about="">
        <dc:format>image/svg+xml</dc:format>
        <dc:type
           rdf:resource="http://purl.org/dc/dcmitype/StillImage" />
      </cc:Work>
    </rdf:RDF>
  </metadata>
  <defs
     id="defs30" />
  <sodipodi:namedview
     pagecolor="#ffffff"
     bordercolor="#666666"
     borderopacity="1"
     objecttolerance="10"
     gridtolerance="10"
     guidetolerance="10"
     inkscape:pageopacity="0"
     inkscape:pageshadow="2"
     inkscape:window-width="1920"
     inkscape:window-height="1011"
     id="namedview28"
     showgrid="false"
     inkscape:zoom="1.0266667"
     inkscape:cx="600"
     inkscape:cy="400"
     inkscape:window-x="-9"
     inkscape:window-y="-9"
     inkscape:window-maximized="1"
     inkscape:current-layer="svg26" />
  <path
     id="path22"
     style="stroke-width:2.71398;fill:#f9f9f9"
     transform="matrix(0.36846188,0,0,0.36846188,-72.077125,-49.12825)"
     d="m 685.2832,134.28711 c -1.43819,0.0789 -2.8809,0.1692 -4.32226,0.25781 0.0692,0.2868 0.13342,0.57709 0.1914,0.8711 0.87171,-0.19128 1.60041,-0.33295 1.64844,-0.26563 0.26255,0.36788 0.48723,0.75501 0.68945,1.1543 0.003,-7e-5 0.005,7e-5 0.008,0 0.24701,-0.9187 0.59357,-1.71925 1.41797,-1.93164 0.12191,-0.0314 0.24495,-0.0566 0.36718,-0.0859 z m 79.5586,0.79687 c 0.17815,0.0484 0.3713,0.0985 0.54687,0.14649 0.11782,-0.0262 0.21841,-0.0461 0.33594,-0.0723 -0.29456,-0.0239 -0.58797,-0.0508 -0.88281,-0.0742 z m 73.02343,24.2461 c 2.27134,1.20876 0.78918,0.41862 2.21289,1.17383 -0.0156,-0.16411 -0.036,-0.32758 -0.0488,-0.49219 -0.71911,-0.23421 -1.44141,-0.45863 -2.16407,-0.68164 z m -229.14257,1.98633 c -0.26285,0.12461 -0.51424,0.24642 -0.78125,0.37109 0.38807,-0.0307 0.77606,-0.0601 1.16406,-0.0918 -0.0625,-0.0156 -0.12496,-0.0312 -0.1875,-0.0469 -0.0565,-0.0791 -0.13197,-0.15461 -0.19531,-0.23242 z m -108.87891,31.69336 c -0.15341,0.014 -0.31755,0.0297 -0.48242,0.0449 0.0479,0.0209 0.0978,0.0383 0.14453,0.0605 0.10934,-0.033 0.23958,-0.078 0.33789,-0.10546 z m -2.67773,0.66406 c -0.2171,0.0738 -0.0958,0.0313 -0.43555,0.15039 0.0613,0.0133 0.0922,0.0212 0.1582,0.0352 0.3602,0.0501 1.09147,0.17395 1.38867,0.0645 0.0717,-0.0266 -0.0129,-0.11012 -0.084,-0.18945 -0.3125,-0.0399 -0.6603,-0.0553 -1.02734,-0.0605 z m -8.625,3 c -0.008,0.003 -0.0155,0.005 -0.0234,0.008 0.007,0.004 0.0119,0.002 0.0195,0.0117 0.0621,0.0794 0.0833,0.17962 0.0977,0.2832 0.0281,-0.009 0.0559,-0.0185 0.084,-0.0273 -0.002,-0.003 -0.002,-0.0109 -0.004,-0.0137 -0.0618,-0.10484 -0.11577,-0.17447 -0.17382,-0.26172 z m -0.0664,0.0215 c -0.25316,0.0858 -0.35134,0.10748 -0.72461,0.24414 -0.46347,0.16969 0.46293,-0.16685 0.69336,-0.0684 0.008,-0.0763 0.0156,-0.14629 0.0312,-0.17578 z m 431.17773,24.51758 c 0.0156,0.03 0.0808,0.11033 0.19336,0.25586 0.0335,-0.0247 0.0644,-0.0549 0.0977,-0.0801 -0.19318,-0.13179 -0.31362,-0.21919 -0.29102,-0.17578 z m 12.52149,12.65625 c -0.24773,0.0873 -0.5285,0.13097 -0.82422,0.1543 0.0448,0.0514 0.092,0.10087 0.13672,0.15234 0.24092,-0.0832 0.47739,-0.18371 0.6875,-0.30664 z m -119.72071,24.01953 v 186.57227 c 0,21.91271 10.6151,40.89882 41.89649,43.91406 V 257.88867 Z m -498.97851,5.65625 v 39.76563 h 41.85937 v -39.76563 z m 244.64258,17.72266 v 161.82031 c 0,23.28599 14.37146,46.86328 48.24219,46.86328 h 24.56054 V 455.31836 H 614.0332 c -9.90061,0 -14.40429,-5.29509 -14.40429,-14.83203 v -80.93164 h 31.29101 v -33.56055 h -31.29101 v -44.72656 z m 403.7539,13.61914 c -0.24541,0.11438 -0.56779,0.25349 -0.86132,0.38281 0.0276,0.14697 0.0588,0.29223 0.0859,0.43945 0.28699,-0.0899 0.57365,-0.18063 0.86328,-0.25976 -0.0314,-0.18716 -0.0573,-0.37521 -0.0879,-0.5625 z m 40.40041,25.85547 c 2e-4,0.13216 0,0.26432 0,0.39648 0.053,1.51982 -0.2603,2.96921 -0.6211,4.41016 0.5044,-0.63703 1.2058,-1.18329 1.4297,-1.9375 0.047,-0.15934 -0.2209,0.32368 -0.3867,0.31445 -0.1212,-0.007 -0.1041,-0.22197 -0.1231,-0.3418 -0.059,-0.37023 -0.2657,-2.5254 -0.2969,-2.84179 z m -18.39259,2.0039 c -0.0317,0.0155 -0.0614,0.0338 -0.0918,0.0508 -0.005,0.23347 -0.0175,0.47515 -0.0234,0.71093 0.0416,0.0106 0.0945,0.0231 0.13086,0.0332 0.0674,0 0.16397,-6e-5 0.23242,0 -0.0821,-0.26515 -0.16581,-0.52981 -0.24804,-0.79493 z m -265.47657,0.46485 c -43.69787,0 -76.94907,30.59542 -76.94922,84.63086 0,63.2467 38.08494,84.94726 77.88282,84.94726 30.39663,0 47.65047,-9.85826 64.09179,-26.08789 L 757.75,442.18164 c -10.61711,10.56283 -19.7446,15.65234 -38.10742,15.65234 -23.60353,0 -36.82031,-15.65194 -36.82031,-36.91601 H 788.2832 v -14.97656 c 0,-46.91395 -25.58862,-82.73047 -69.88086,-82.73047 z m -404.92578,2.78515 -0.0488,121.91993 c 0,21.93985 10.6652,40.95427 42.01172,43.96679 V 325.99609 Z m 78.84571,0 v 164.16016 h 41.58007 V 359.55469 h 34.35352 c 12.21293,0 17.27734,6.01958 17.27734,15.80078 v 114.80078 h 41.49805 V 375.14062 c 0,-23.35384 -12.41804,-49.0625 -48.875,-49.0625 z m 609.13863,5.16602 c 0,2.9e-4 -0.01,0.003 -0.01,0.004 0,0.0229 -6e-4,0.0453 0.01,0.0684 0.01,-0.0142 0.014,-0.033 0.02,-0.0469 0.01,-0.0204 8e-4,-0.028 -0.018,-0.0254 z M 716.60156,357.5918 c 21.28579,0 29.35931,17.22284 30.18164,35.02929 h -63.96093 c 0.32025,-7.28976 1.25367,-11.8502 3.97851,-17.80468 4.59206,-9.9169 15.59036,-17.22461 29.80078,-17.22461 z m 273.53321,29.79882 c -2.99266,5.90947 -5.23498,10.17049 -5.99219,11.21485 -0.12645,0.17439 -0.26513,0.33649 -0.39844,0.50391 0.0943,0.34085 0.16896,0.68322 0.24609,1.02539 2.20155,-4.1489 4.25593,-8.39769 6.14454,-12.74415 z M 220.75391,438.7207 c 0.0576,0.13179 0.10981,0.26571 0.16992,0.39649 0.087,0.36191 0.18973,0.71946 0.28125,1.08008 0.0982,-0.42758 0.19542,-0.85542 0.29297,-1.28321 -0.21919,-0.0573 -0.49353,-0.12882 -0.74414,-0.19336 z m -9.59375,34.47071 c -0.0459,0.1534 -0.0856,0.30862 -0.11133,0.46679 -0.0459,0.28228 0.14299,0.56516 0.11328,0.84961 -0.10985,1.05151 -0.38409,2.07974 -0.5293,3.12696 -0.14666,1.05772 -0.23014,2.12397 -0.3457,3.18554 -0.0416,0.38182 -0.0661,0.76374 -0.082,1.14453 0.0156,0.0659 0.009,0.042 0.0254,0.11328 0.35388,-0.30928 0.73207,-0.65815 1.14258,-1.05273 -0.0725,-2.61119 -0.14319,-5.22262 -0.21289,-7.83398 z m 13.62695,34.25781 c -0.021,0.0944 -0.0411,0.18893 -0.0625,0.2832 0.0861,0.0266 0.17324,0.0556 0.25977,0.0859 -0.0211,-0.0678 -0.0426,-0.13552 -0.0645,-0.20313 -0.0431,-0.0562 -0.0899,-0.10966 -0.13281,-0.16601 z m 2.02344,8.7793 c -0.004,-0.004 -0.0272,0.005 -0.0742,0.0293 -0.34424,0.1768 -0.69768,0.33515 -1.04688,0.50196 0.40396,-0.0126 1.14669,-0.50832 1.1211,-0.53125 z M 867.2793,540.6543 c -0.0546,0.27281 -0.10944,0.54556 -0.16407,0.81836 0.059,0.23284 0.11068,0.46709 0.16407,0.70117 z m -610.62305,10.46289 c 1.09479,2.11258 0.76957,1.43398 0.19727,0.23242 -0.0643,-0.0788 -0.13376,-0.1528 -0.19727,-0.23242 z m 16.97266,1.25 c 0.0241,0.6805 0.0321,1.35481 -0.01,2.00976 1.22281,0.18561 2.38635,0.54965 3.51758,1.00782 -1.18746,-0.99088 -2.35701,-1.99671 -3.50781,-3.01758 z m -15.84961,0.0762 c 0.25593,0.62929 0.54095,1.24863 0.80468,1.875 0.63854,0.92957 1.38093,1.75506 2.17774,2.52539 0.36653,0.10146 0.68303,0.17868 1.06445,0.28711 -0.089,-0.11928 -0.13047,-0.19022 -0.23047,-0.32031 -1.18378,-1.54015 -2.53644,-2.9155 -3.8164,-4.36719 z m 15.83789,1.94922 c -0.008,0.12276 -0.0234,0.24217 -0.0352,0.36328 0.25128,0.20122 0.47914,0.34412 0.66602,0.39453 0.32013,0.0864 -0.39906,-0.49089 -0.63086,-0.75781 z m -19.92578,10.85351 c 0.22196,0.0423 0.87863,0.20322 0.66601,0.12696 -0.0579,-0.0208 -0.11777,-0.0363 -0.17578,-0.0566 -0.16351,-0.0233 -0.32672,-0.047 -0.49023,-0.0703 z m 613.58789,11.23633 c -0.18398,0.586 -0.31468,1.16526 -0.40039,1.74024 0.002,1.05853 0.004,2.11706 0.004,3.17578 -5.1e-4,0.71354 -10e-6,1.42708 0,2.14062 0.13068,-0.0715 0.266,-0.14127 0.39649,-0.21289 z m -500.98633,21.44336 c 0.53865,0.61308 1.08968,1.21789 1.64453,1.81836 0.40379,-0.42021 0.62795,-0.65511 1.0625,-1.10742 -0.90951,-0.22939 -1.80331,-0.47533 -2.70703,-0.71094 z m 270.32812,3.04492 c -0.18354,0.0323 -0.36728,0.0655 -0.55078,0.0977 0.25357,0.26066 0.4684,0.56351 0.62696,0.92383 -0.0214,-0.34301 -0.0518,-0.68048 -0.0762,-1.02149 z m -7.81445,4.53125 c -0.0927,0.0674 -0.18991,0.13089 -0.2793,0.19922 0.11581,0.11866 0.23505,0.23601 0.34571,0.35742 -0.0222,-0.18551 -0.0441,-0.37111 -0.0664,-0.55664 z m -208.85937,2.54102 c -0.16081,0.0727 -0.32328,0.13912 -0.48243,0.21875 0.29836,-0.0611 0.53453,-0.1153 0.82813,-0.17578 -0.11525,-0.0144 -0.23051,-0.0285 -0.3457,-0.043 z m -78.52735,5.73633 c -0.11226,0.19437 -0.25783,0.46724 -0.41601,0.77539 0.23324,-0.11072 0.46495,-0.22011 0.70898,-0.33594 0.0336,-0.10814 0.0604,-0.20231 0.0879,-0.30078 -0.12701,-0.0461 -0.25385,-0.0925 -0.38086,-0.13867 z m -34.58008,0.62304 c 1.15997,0.63766 2.21545,1.24377 3.22266,1.8418 0.0328,-0.29474 0.0623,-0.61002 0.10156,-0.87305 -0.90789,-0.2995 -2.37351,-0.77007 -2.8164,-0.91797 -0.16943,-0.0156 -0.33845,-0.0345 -0.50782,-0.0508 z m 94.0625,5.87891 c -0.26306,0.0242 -0.52594,0.0506 -0.78906,0.0742 0.0962,0.0235 0.17634,0.0684 0.26367,0.10351 0.24242,-0.0825 0.45146,-0.13134 0.44922,0.0566 -7.2e-4,0.0624 -0.005,0.12507 -0.006,0.1875 0.0558,0.0425 0.10711,0.0902 0.15821,0.13868 0.1273,0.0109 0.11923,0.011 0.24218,0.0215 -0.10908,-0.19604 -0.20786,-0.3848 -0.31836,-0.58203 z m -80.61132,1.15039 c -0.0471,-0.01 -0.0164,0.0245 0.043,0.0801 0.0876,0.0289 0.17585,0.056 0.26368,0.084 0.0298,-0.002 0.0566,-0.004 0.0859,-0.006 -0.13119,-0.0543 -0.3537,-0.15029 -0.39257,-0.1582 z m 0.39257,0.1582 c 0.1222,0.0506 0.14788,0.056 0.36524,0.14844 -0.15181,-0.0419 -0.30101,-0.0947 -0.45117,-0.14258 -0.0555,0.003 -0.10325,0.006 -0.16016,0.01 0.12522,0.10836 0.33422,0.3045 0.55078,0.51172 0.0429,0.0207 0.0896,0.0387 0.13477,0.0605 0.23179,-0.21861 0.46265,-0.43838 0.69336,-0.6582 -0.0593,0.004 -0.0523,0.006 -0.11524,0.01 -0.27396,0.0156 -0.67003,0.0386 -1.01758,0.0605 z m 389,0.0723 c -0.21958,0.0814 -0.40197,0.23532 -0.5957,0.36914 0.0911,-0.0222 0.0966,-0.0208 0.21094,-0.0488 0.12861,-0.10677 0.54136,-0.37839 0.38476,-0.32031 z m -113.35156,0.0625 c -0.57843,-0.003 -1.15114,0.0145 -1.7168,0.0664 -1.09849,0.10073 -2.19473,0.22226 -3.29101,0.34375 0.0319,0.0133 0.0639,0.0279 0.0957,0.041 1.35917,-0.0967 3.28245,-0.2449 5.14453,-0.37695 0.007,-0.0196 0.0107,-0.0444 0.0176,-0.0644 -0.0829,-0.001 -0.16726,-0.009 -0.25,-0.01 z m -294.09765,3.57031 c 3.54961,1.8117 7.19129,3.56301 10.90624,5.26367 0.12085,-0.14451 0.30952,-0.38025 0.42383,-0.51562 -0.22967,-0.0575 -0.46151,-0.1049 -0.6875,-0.17578 -1.90039,-0.59613 -3.65769,-1.73438 -5.47851,-2.51758 -0.85163,-0.28706 -1.71794,-0.53345 -2.55469,-0.86133 -1.29936,-0.50915 -1.97863,-0.89682 -2.60937,-1.19336 z M 327.2832,634.75 c -0.5467,0.39613 -1.08649,0.79766 -1.62695,1.19922 0.33922,0.13737 0.66932,0.28146 1.00977,0.41797 0.0597,-0.15217 0.1104,-0.2946 0.17382,-0.45117 0.23611,-0.58282 0.32064,-0.83232 0.44336,-1.16602 z m 228.74024,1.66211 c -0.061,0.0325 -0.1293,0.0503 -0.19727,0.0684 -0.007,0.009 -0.0109,0.0149 -0.0176,0.0234 0.14031,0.24318 0.25201,0.47584 0.33985,0.70117 0.70088,-0.43285 1.62493,-0.43719 2.61914,-0.3086 0.0584,-0.0851 0.11943,-0.16866 0.17773,-0.2539 -0.974,-0.0765 -1.94814,-0.15056 -2.92187,-0.23047 z m -9.68946,6.43555 c -0.25014,0.0174 -0.43603,0.0173 -0.7246,0.043 -0.43604,0.0389 -1.1097,0.36941 -1.58204,0.47266 0.0332,0.13796 0.0656,0.2765 0.0996,0.41406 0.96743,-0.18977 1.93492,-0.37538 2.90235,-0.56445 -0.23219,-0.12075 -0.46327,-0.24419 -0.69532,-0.36523 z M 483.75,646.625 c -0.0847,0.0199 -0.16921,0.0406 -0.25391,0.0606 0.0937,0.003 0.18751,0.007 0.28125,0.01 -0.009,-0.0233 -0.0182,-0.0466 -0.0273,-0.0703 z m -94.26367,0.10156 c -0.44809,0.1235 -0.82261,0.21723 -0.88281,0.22656 -0.10961,0.0168 -0.21983,0.022 -0.33008,0.0293 0.0248,0.0827 0.0711,0.21266 0.0781,0.25 0.0342,0.1823 0.0389,0.28756 0.0547,0.42383 0.23439,0.0207 0.46855,0.0445 0.70313,0.0644 0.0261,-0.0894 0.0417,-0.1756 0.0762,-0.26758 0.0961,-0.25636 0.19861,-0.49203 0.30078,-0.72656 z m 106.23437,10.1836 c 0.0345,0.19586 0.0577,0.3931 0.0703,0.59179 0.0716,-0.19684 0.15993,-0.38552 0.24023,-0.57812 -0.10351,-0.005 -0.20703,-0.009 -0.31055,-0.0137 z m 81.17188,6.5957 c -0.006,0.0781 -0.01,0.15627 -0.0156,0.23437 0.73671,-0.0614 1.46463,-0.11242 2.20313,-0.17578 -0.72874,-0.01 -1.45837,-0.0354 -2.1875,-0.0586 z" />
</svg>
