<?xml version="1.0" encoding="utf-8"?>
<!-- Generator: Adobe Illustrator 25.2.3, SVG Export Plug-In . SVG Version: 6.00 Build 0)  -->
<svg version="1.1" id="afdfd1e9-9b52-4ce3-aad9-0a68bb11f588"
	 xmlns="http://www.w3.org/2000/svg" xmlns:xlink="http://www.w3.org/1999/xlink" x="0px" y="0px" viewBox="0 0 1137 693.1"
	 style="enable-background:new 0 0 1137 693.1;" xml:space="preserve">
<style type="text/css">
	.st0{fill:#3F3D56;}
	.st1{fill:#FFA802;}
	.st2{fill:#0896FC;}
	.st3{fill:#CCCCCC;}
	.st4{fill:#F2F2F2;}
	.st5{opacity:0.1;enable-background:new    ;}
</style>
<path class="st0" d="M137.4,693.1l-2-0.4c21.8-96.8,76.4-184.6,154-247.4C480.1,291.1,759.8,320.6,914,511.4
	c42.5,52.6,72.5,114.2,87.6,180.1l-1.9,0.4c-46.1-202.2-223.3-343.4-431-343.4C363.7,348.5,182.3,493.4,137.4,693.1z"/>
<circle class="st1" cx="417.1" cy="69.4" r="54.3"/>
<path class="st0" d="M183.1,680.8c1.7,6.3,7.5,10.1,7.5,10.1s3.1-6.3,1.4-12.5s-7.5-10.1-7.5-10.1S181.4,674.5,183.1,680.8z"/>
<path class="st2" d="M185.6,679.4c4.6,4.5,5.2,11.5,5.2,11.5s-7-0.4-11.6-4.9s-5.2-11.5-5.2-11.5S181,674.9,185.6,679.4z"/>
<path class="st0" d="M312.1,680.8c1.7,6.3,7.5,10.1,7.5,10.1s3.1-6.3,1.4-12.5s-7.5-10.1-7.5-10.1S310.4,674.5,312.1,680.8z"/>
<path class="st2" d="M314.6,679.4c4.6,4.5,5.2,11.5,5.2,11.5s-7-0.4-11.6-4.9s-5.2-11.5-5.2-11.5S310,674.9,314.6,679.4z"/>
<polygon class="st0" points="337.7,182 317.3,165.6 431.7,63.5 721.7,63.5 721.7,153.4 533.8,280 "/>
<polygon class="st3" points="774.6,120.8 774.6,65.6 736,65.6 736,79.1 721.7,63.5 627.7,165.6 591,190.2 534,606.6 619.9,692.6 
	819.7,692.6 819.7,169.7 "/>
<rect x="317.3" y="165.6" class="st4" width="310.4" height="526.9"/>
<rect x="437.8" y="563.9" class="st3" width="57.2" height="128.7"/>
<polygon class="st0" points="376.5,600.7 376.5,580.3 352,580.3 352,600.7 374.5,600.7 "/>
<polygon class="st0" points="374.5,617 352,617 352,637.4 376.5,637.4 376.5,617 "/>
<rect x="392.9" y="580.3" class="st0" width="24.5" height="20.4"/>
<rect x="392.9" y="617" class="st0" width="24.5" height="20.4"/>
<polygon class="st0" points="544,600.7 544,580.3 519.5,580.3 519.5,600.7 541.9,600.7 "/>
<polygon class="st0" points="541.9,617 519.5,617 519.5,637.4 544,637.4 544,617 "/>
<rect x="560.3" y="580.3" class="st0" width="24.5" height="20.4"/>
<rect x="560.3" y="617" class="st0" width="24.5" height="20.4"/>
<polygon class="st0" points="715.6,192.2 715.6,171.8 691,171.8 691,192.2 713.5,192.2 "/>
<polygon class="st0" points="713.5,208.5 691,208.5 691,229 715.6,229 715.6,208.5 "/>
<rect x="731.9" y="171.8" class="st0" width="24.5" height="20.4"/>
<rect x="731.9" y="208.5" class="st0" width="24.5" height="20.4"/>
<polygon class="st0" points="715.6,306.6 715.6,286.1 691,286.1 691,306.6 713.5,306.6 "/>
<polygon class="st0" points="713.5,322.9 691,322.9 691,343.3 715.6,343.3 715.6,322.9 "/>
<rect x="731.9" y="286.1" class="st0" width="24.5" height="20.4"/>
<rect x="731.9" y="322.9" class="st0" width="24.5" height="20.4"/>
<polygon class="st0" points="715.6,420.9 715.6,400.5 691,400.5 691,420.9 713.5,420.9 "/>
<polygon class="st0" points="713.5,437.3 691,437.3 691,457.7 715.6,457.7 715.6,437.3 "/>
<rect x="731.9" y="400.5" class="st0" width="24.5" height="20.4"/>
<rect x="731.9" y="437.3" class="st0" width="24.5" height="20.4"/>
<polygon class="st0" points="715.6,535.3 715.6,514.9 691,514.9 691,535.3 713.5,535.3 "/>
<polygon class="st0" points="713.5,551.7 691,551.7 691,572.1 715.6,572.1 715.6,551.7 "/>
<rect x="731.9" y="514.9" class="st0" width="24.5" height="20.4"/>
<rect x="731.9" y="551.7" class="st0" width="24.5" height="20.4"/>
<rect x="352" y="192.2" class="st0" width="236.9" height="49"/>
<rect x="352" y="290.2" class="st0" width="236.9" height="49"/>
<rect x="352" y="388.3" class="st0" width="236.9" height="49"/>
<rect x="352" y="486.3" class="st0" width="236.9" height="49"/>
<rect y="690.5" class="st0" width="1137" height="2"/>
<rect x="190.4" y="459.6" class="st0" width="5.9" height="232.1"/>
<path class="st2" d="M250.5,489.2c0.4,81.1-56.7,147.2-56.7,147.2s-57.7-65.5-58.1-146.7s56.7-147.2,56.7-147.2
	S250.1,408,250.5,489.2z"/>
<path class="st5" d="M250.5,489.2c0.4,81.1-56.7,147.2-56.7,147.2s-57.7-65.5-58.1-146.7s56.7-147.2,56.7-147.2
	S250.1,408,250.5,489.2z"/>
<rect x="114" y="459.6" class="st0" width="5.9" height="232.1"/>
<path class="st2" d="M174.1,489.2c0.4,81.1-56.7,147.2-56.7,147.2s-57.7-65.5-58.1-146.7s56.7-147.2,56.7-147.2
	S173.8,408,174.1,489.2z"/>
<path class="st4" d="M945.6,165.3c-46.3,0.2-83.9,0.9-83.9,0.9s44.8-59.3,83.8-37.3s83.8,36.6,83.8,36.6S991.8,165.1,945.6,165.3z"
	/>
<path class="st4" d="M174.6,279.3c-46.3,0.2-83.9,0.9-83.9,0.9s44.8-59.3,83.8-37.3s83.8,36.6,83.8,36.6S220.8,279.1,174.6,279.3z"
	/>
<path class="st4" d="M342.6,41.3c-46.3,0.2-83.9,0.9-83.9,0.9s44.8-59.3,83.8-37.3s83.8,36.6,83.8,36.6S388.8,41.1,342.6,41.3z"/>
<rect x="1035" y="459.6" class="st0" width="5.9" height="232.1"/>
<path class="st2" d="M1095.1,489.2c0.4,81.1-56.7,147.2-56.7,147.2s-57.7-65.5-58.1-146.7s56.7-147.2,56.7-147.2
	S1094.8,408,1095.1,489.2z"/>
<polygon class="st0" points="824.7,547.6 884,547.6 884,533.3 916.7,533.3 916.7,547.6 978,547.6 978,611 916.7,611 916.7,690.7 
	884,690.7 884,611 824.7,611 794,576.3 "/>
</svg>
