<?xml version="1.0" encoding="utf-8"?>
<!-- Generator: Adobe Illustrator 25.2.3, SVG Export Plug-In . SVG Version: 6.00 Build 0)  -->
<svg version="1.1" id="b142c218-c3ca-487e-979b-dffd11e3a76c"
	 xmlns="http://www.w3.org/2000/svg" xmlns:xlink="http://www.w3.org/1999/xlink" x="0px" y="0px" viewBox="0 0 532.5 389.4"
	 style="enable-background:new 0 0 532.5 389.4;" xml:space="preserve">
<style type="text/css">
	.st0{fill:#0896FC;}
	.st1{fill:#2F2E41;}
	.st2{fill:#3F3D56;}
	.st3{fill:#E6E6E6;}
</style>
<path class="st0" d="M323.9,184.2c-3.4,0-6.3-2.7-6.5-6.1l-1-14.8c-0.2-3.6,2.5-6.7,6.1-6.9l115.6-7.6c7.7-0.5,14.3,5.3,14.8,13
	c0.5,7.7-5.3,14.3-13,14.8l-115.6,7.6C324.2,184.2,324,184.2,323.9,184.2z"/>
<path class="st1" d="M346.7,186.2c-3.5,0-6.4-2.8-6.5-6.3l-0.8-22c-0.1-3.6,2.7-6.6,6.3-6.8c0,0,0,0,0,0l95.1-3.6
	c3.6-0.1,6.6,2.7,6.8,6.3l0.8,22c0.1,3.6-2.7,6.6-6.3,6.8c0,0,0,0,0,0l-95.1,3.6C346.8,186.1,346.8,186.2,346.7,186.2z"/>
<path class="st1" d="M458.1,389.4h-14.8c-3.6,0-6.5-2.9-6.5-6.5V259.6c0-3.6,2.9-6.5,6.5-6.5h14.8c3.6,0,6.5,2.9,6.5,6.5v123.3
	C464.6,386.4,461.7,389.3,458.1,389.4z"/>
<path class="st1" d="M421,389.4h-14.8c-3.6,0-6.5-2.9-6.5-6.5V259.6c0-3.6,2.9-6.5,6.5-6.5H421c3.6,0,6.5,2.9,6.5,6.5v123.3
	C427.5,386.4,424.6,389.3,421,389.4z"/>
<circle class="st0" cx="435.6" cy="73.3" r="51.1"/>
<path class="st1" d="M408,90.8c-1.6-0.5-3.2-1.4-4.4-2.6c-1.7-1.7-2.6-4.1-2.4-6.5c0.1-1.7,1-3.3,2.4-4.2c1.8-1.2,4.3-1.2,6.8-0.1
	l-0.1-20l2,0l0.1,23.5l-1.5-1c-1.8-1.1-4.3-1.9-6.2-0.8c-0.9,0.6-1.5,1.6-1.5,2.7c-0.1,1.8,0.5,3.5,1.8,4.8c2.2,2.1,5.4,2.8,9.1,3.4
	l-0.3,2C411.8,91.8,409.8,91.4,408,90.8z"/>
<rect x="393.8" y="52.8" transform="matrix(0.1309 -0.9914 0.9914 0.1309 285.4806 441.9571)" class="st1" width="2" height="10.8"/>
<rect x="427.6" y="57.2" transform="matrix(0.1309 -0.9914 0.9914 0.1309 310.4164 479.3169)" class="st1" width="2" height="10.8"/>
<path class="st1" d="M392.1,292.6L392.1,292.6c-4.7,0-8.5-3.8-8.5-8.5c0,0,13.6-73.7,21.3-116.9c3.1-17.3,18.2-29.9,35.8-29.9h0
	c25.4,0,46.1,20.6,46.1,46.1v14.6C486.8,250.2,444.4,292.6,392.1,292.6L392.1,292.6z"/>
<path class="st0" d="M456.6,285.3c-1.1,2.3-3.4,3.8-6,3.8l-14.8-0.1c-3.6,0-6.5-3-6.5-6.6c0,0,0,0,0,0l1-115.9
	c0.1-7.7,6.3-13.9,14-13.8c7.7,0.1,13.9,6.3,13.8,14c0,0,0,0,0,0l-1,115.9C457.2,283.5,457,284.4,456.6,285.3z"/>
<path class="st1" d="M463.1,254.3c-1.1,2.3-3.4,3.8-6,3.8l-25.3-0.2c-3.6,0-6.5-3-6.5-6.6l0.8-95.1c0-3.6,3-6.5,6.6-6.5c0,0,0,0,0,0
	l25.3,0.2c3.6,0,6.5,3,6.5,6.6c0,0,0,0,0,0l-0.8,95.1C463.7,252.6,463.5,253.5,463.1,254.3z"/>
<path class="st1" d="M420.9,43.2c-8,1.4-16.9,2.9-24.4-0.8c-6-2.9-10.1-8.7-8.6-15.5c2.9-13.6,18.4-19.6,30.9-18.4
	c7.3,0.7,14.3,3.8,19.6,8.9c0.7,0.7,1.9,0.7,2.6-0.1c0.3-0.3,0.5-0.8,0.5-1.2c-0.1-5,3.7-9.2,8.1-11.1c5.6-2.4,12-1.5,17.7-0.3
	c32,7.1,56.3,33.4,60.8,65.9c1.6,11.2,0.7,22.5-2.5,33.4c-3,10-8.6,20-17.8,25.4c-8.3,4.9-20.4,6.1-28-0.7
	c-6.1-5.5-8.9-15.7-3.9-22.8c3-4.2,8.1-6.4,13.2-5.7c4.9,0.8,8.8,4.3,10.2,9c1,4.5-0.7,9.2-4.3,12.2c-5.4,3.9-12.9,2.6-16.7-2.7
	c-0.1-0.2-0.2-0.3-0.4-0.5c-1.2-2-4.3-0.2-3.1,1.8c2.9,4.5,7.8,7.2,13.1,7.3c5.3,0.1,10.3-2.7,13-7.3c2.9-4.7,3.1-10.5,0.5-15.4
	c-2.8-4.9-8-8-13.7-8.2c-5.9,0-11.4,2.8-14.8,7.6c-2.7,4.1-3.7,9.1-2.8,13.9c0.8,4.9,3.2,9.4,6.8,12.9c4.2,3.8,9.5,5.9,15.1,6.1
	c12.2,0.7,23.1-6.3,29.8-16.1c7-10.1,10.1-22.8,10.7-35c1.3-25.1-8.9-49.4-27.7-66c-8.8-7.7-19.2-13.5-30.4-17
	c-11.1-3.4-26.6-5.9-34.1,5.5c-1.5,2.3-2.3,5-2.3,7.8l3.1-1.3c-10.8-10.4-27.9-13-41.4-6.6c-6.8,3.2-12.7,9.2-14.8,16.5
	c-2.2,7.6,1,15.1,7.5,19.4c8.9,5.9,19.8,4.2,29.7,2.6C424.1,46.3,423.1,42.8,420.9,43.2L420.9,43.2z"/>
<path class="st2" d="M308.5,264.1h-291c-9.7,0-17.5-7.8-17.5-17.5v-174c0-9.7,7.8-17.5,17.5-17.5h291c9.7,0,17.5,7.8,17.5,17.5v174
	C326,256.2,318.2,264.1,308.5,264.1z M17.5,58.1C9.5,58.1,3,64.6,3,72.6v174c0,8,6.5,14.5,14.5,14.5h291c8,0,14.5-6.5,14.5-14.5
	v-174c0-8-6.5-14.5-14.5-14.5H17.5z"/>
<path class="st2" d="M56.5,96.1c-6.9,0-12.5-5.6-12.5-12.5s5.6-12.5,12.5-12.5S69,76.7,69,83.6C69,90.5,63.4,96.1,56.5,96.1z
	 M56.5,74.1c-5.2,0-9.5,4.3-9.5,9.5s4.3,9.5,9.5,9.5s9.5-4.3,9.5-9.5l0,0C66,78.3,61.7,74.1,56.5,74.1z"/>
<path class="st2" d="M267.5,96.1c-6.9,0-12.5-5.6-12.5-12.5s5.6-12.5,12.5-12.5S280,76.7,280,83.6C280,90.5,274.4,96.1,267.5,96.1z
	 M267.5,74.1c-5.2,0-9.5,4.3-9.5,9.5s4.3,9.5,9.5,9.5s9.5-4.3,9.5-9.5l0,0C277,78.3,272.7,74.1,267.5,74.1z"/>
<path class="st3" d="M86,172.1H32c-4.7,0-8.5-3.8-8.5-8.5v-32c0-4.7,3.8-8.5,8.5-8.5h54c4.7,0,8.5,3.8,8.5,8.5v32
	C94.5,168.3,90.7,172.1,86,172.1z"/>
<path class="st3" d="M190,172.1h-54c-4.7,0-8.5-3.8-8.5-8.5v-32c0-4.7,3.8-8.5,8.5-8.5h54c4.7,0,8.5,3.8,8.5,8.5v32
	C198.5,168.3,194.7,172.1,190,172.1z"/>
<path class="st3" d="M240,124.1c-4.1,0-7.5,3.4-7.5,7.5v32c0,4.1,3.4,7.5,7.5,7.5h54c4.1,0,7.5-3.4,7.5-7.5v-32
	c0-4.1-3.4-7.5-7.5-7.5H240z"/>
<path class="st3" d="M86.5,236.1h-54c-4.7,0-8.5-3.8-8.5-8.5v-32c0-4.7,3.8-8.5,8.5-8.5h54c4.7,0,8.5,3.8,8.5,8.5v32
	C95,232.3,91.2,236.1,86.5,236.1z"/>
<path class="st3" d="M190.5,236.1h-54c-4.7,0-8.5-3.8-8.5-8.5v-32c0-4.7,3.8-8.5,8.5-8.5h54c4.7,0,8.5,3.8,8.5,8.5v32
	C199,232.3,195.2,236.1,190.5,236.1z"/>
<path class="st3" d="M294.5,236.1h-54c-4.7,0-8.5-3.8-8.5-8.5v-32c0-4.7,3.8-8.5,8.5-8.5h54c4.7,0,8.5,3.8,8.5,8.5v32
	C303,232.3,299.2,236.1,294.5,236.1z"/>
<path class="st2" d="M56.5,87.1c-1.9,0-3.5-1.6-3.5-3.5v-50c0-1.9,1.6-3.5,3.5-3.5s3.5,1.6,3.5,3.5v50C60,85.5,58.4,87.1,56.5,87.1z
	"/>
<path class="st2" d="M267.5,87.1c-1.9,0-3.5-1.6-3.5-3.5v-50c0-1.9,1.6-3.5,3.5-3.5s3.5,1.6,3.5,3.5v50
	C271,85.5,269.4,87.1,267.5,87.1z"/>
<path id="b5e0804e-c461-433c-b77b-73087ef71cb0" class="st0" d="M57,160.6c-1.5,0-2.9-0.5-4.1-1.4l-0.1-0.1l-15.4-11.8
	c-3-2.3-3.6-6.6-1.3-9.6c2.3-3,6.6-3.6,9.6-1.3l10,7.6l23.5-30.7c2.3-3,6.6-3.6,9.6-1.3l0,0l0,0l-0.1,0.2l0.2-0.2
	c3,2.3,3.6,6.6,1.3,9.6l-27.7,36.1C61.1,159.6,59.1,160.6,57,160.6L57,160.6z"/>
<path id="b3a0cc8c-ec19-4bca-9f18-6cf478ced8d1" class="st0" d="M164,223.6c-1.5,0-2.9-0.5-4.1-1.4l-0.1-0.1l-15.4-11.8
	c-3-2.3-3.6-6.6-1.3-9.6c2.3-3,6.6-3.6,9.6-1.3l10,7.6l23.5-30.7c2.3-3,6.6-3.6,9.6-1.3l0,0l0,0l-0.1,0.2l0.2-0.2
	c3,2.3,3.6,6.6,1.3,9.6l-27.7,36.1C168.1,222.6,166.1,223.6,164,223.6L164,223.6z"/>
<path id="b29a902b-cd84-4f58-97ad-17c408cf2b06" class="st0" d="M265,160.6c-1.5,0-2.9-0.5-4.1-1.4l-0.1-0.1l-15.4-11.8
	c-3-2.3-3.6-6.6-1.3-9.6c2.3-3,6.6-3.6,9.6-1.3l10,7.6l23.5-30.7c2.3-3,6.6-3.6,9.6-1.3l0,0l0,0l-0.1,0.2l0.2-0.2
	c3,2.3,3.6,6.6,1.3,9.6l-27.7,36.1C269.1,159.6,267.1,160.6,265,160.6L265,160.6z"/>
</svg>
